<?xml version="1.0" encoding="UTF-8" standalone="no"?>
<svg
   xmlns:dc="http://purl.org/dc/elements/1.1/"
   xmlns:cc="http://creativecommons.org/ns#"
   xmlns:rdf="http://www.w3.org/1999/02/22-rdf-syntax-ns#"
   xmlns:svg="http://www.w3.org/2000/svg"
   xmlns="http://www.w3.org/2000/svg"
   xmlns:sodipodi="http://sodipodi.sourceforge.net/DTD/sodipodi-0.dtd"
   xmlns:inkscape="http://www.inkscape.org/namespaces/inkscape"
   version="1.1"
   id="svg2"
   xml:space="preserve"
   width="1000"
   height="666.66669"
   viewBox="0 0 1000 666.66669"
   sodipodi:docname="bg.ai"><metadata
     id="metadata8"><rdf:RDF><cc:Work
         rdf:about=""><dc:format>image/svg+xml</dc:format><dc:type
           rdf:resource="http://purl.org/dc/dcmitype/StillImage" /></cc:Work></rdf:RDF></metadata><defs
     id="defs6"><clipPath
       clipPathUnits="userSpaceOnUse"
       id="clipPath22"><path
         d="M 0,500 H 750 V 0 H 0 Z"
         id="path20" /></clipPath></defs><sodipodi:namedview
     pagecolor="#ffffff"
     bordercolor="#666666"
     borderopacity="1"
     objecttolerance="10"
     gridtolerance="10"
     guidetolerance="10"
     inkscape:pageopacity="0"
     inkscape:pageshadow="2"
     inkscape:window-width="640"
     inkscape:window-height="480"
     id="namedview4" /><g
     id="g10"
     inkscape:groupmode="layer"
     inkscape:label="bg"
     transform="matrix(1.3333333,0,0,-1.3333333,0,666.66667)"><g
       id="g12"
       transform="translate(0,500.0004)"><path
         d="M 0,0 V -500 H 22.33 750 V 0 Z"
         style="fill:#ffffff;fill-opacity:1;fill-rule:nonzero;stroke:none"
         id="path14" /></g><g
       id="g16"><g
         id="g18"
         clip-path="url(#clipPath22)"><g
           id="g24"
           transform="translate(76.9401)"><path
             d="m 0,0 h -54.61 -22.33 v 127.45 c 1.83,-2.97 3.23,-6.32 4.55,-9.52 C -55.46,76.65 -32.01,38.06 -3.18,4.03 -2.11,2.76 -1.01,1.41 0,0"
             style="fill:#fed500;fill-opacity:1;fill-rule:nonzero;stroke:none"
             id="path26" /></g><g
           id="g28"
           transform="translate(95.98,460.12)"><path
             d="m 0,0 c -3.44,-6.61 -12.83,-6.11 -20.25,-5.44 -24.34,2.23 -49.39,-4.19 -69.66,-17.87 -1.9,-1.29 -3.95,-2.66 -6.07,-3.69 v 66.88 h 81.41 C -7.27,30.71 -1.13,20.88 0.78,9.21 1.28,6.12 1.44,2.79 0,0"
             style="fill:#fb598b;fill-opacity:1;fill-rule:nonzero;stroke:none"
             id="path30" /></g><g
           id="g32"
           transform="translate(141.66,427.48)"><path
             d="m 0,0 c -14.8,-8.78 -33.6,-4.75 -50.11,0.08 -16.51,4.84 -34.58,10.17 -50.42,3.44 -7.44,-3.17 -13.6,-8.76 -19.02,-14.76 -3.98,-4.42 -7.71,-9.17 -12.61,-12.54 -2.82,-1.93 -6.14,-3.35 -9.5,-3.79 v 59.19 c 7.21,4.73 15.66,7.71 24.22,8.99 13.55,2.04 27.41,0.16 40.72,-3.11 5.33,-1.31 12.79,-1.76 14.45,3.47 1.31,4.14 -2.52,7.93 -5.74,10.84 -6.56,5.93 -12.05,12.98 -16.31,20.71 H -23.5 C -24.61,59.67 -18.98,46.29 -8.77,38.34 -1.51,32.7 8.51,28.63 10.6,19.67 12.42,11.91 6.86,4.07 0,0"
             style="fill:#fed500;fill-opacity:1;fill-rule:nonzero;stroke:none"
             id="path34" /></g><g
           id="g36"
           transform="translate(158.1901)"><path
             d="m 0,0 h -110.14 c -12.81,18.9 -24.27,38.48 -32.71,59.35 -7.19,17.77 -12.04,36.08 -15.34,54.71 v 161.41 c 1.59,-0.46 3.41,-1.89 5.49,-4.67 3.48,-4.65 2.89,-10.82 2.4,-16.44 -5.28,-60.66 17.74,-121.24 51.65,-173.61 C -87.08,62.88 -74.05,45.53 -57.16,31.8 -40.35,18.13 -20.43,8.58 0,0"
             style="fill:#0135a5;fill-opacity:1;fill-rule:nonzero;stroke:none"
             id="path38" /></g><g
           id="g40"
           transform="translate(287.97,313.61)"><path
             d="m 0,0 c -9.35,-9.54 -24.44,-10.24 -37.66,-8.39 -29.73,4.17 -57.97,18.3 -79.12,39.59 -6.15,6.2 -11.76,13.02 -18.64,18.4 -12.23,9.57 -27.81,14.03 -43.28,15.28 -11.53,0.93 -23.48,0.12 -34,-4.69 -11.7,-5.34 -20.72,-15.15 -28.7,-25.24 -14.37,-18.16 -26.49,-38.1 -36.02,-59.21 -2.77,-6.16 -5.51,-12.65 -10.55,-17.08 v 147.22 c 6.19,5.79 12.96,10.97 20.25,15.36 27.63,16.65 55.89,15.33 85.17,3.5 6.79,-2.75 35.39,-12.88 32.35,4.24 -0.12,0.64 -0.27,1.32 -0.48,2.04 -1.45,5.1 -5.83,8.7 -9.56,12.48 -11.03,11.18 -17.62,26.98 -19.67,42.89 h 77.64 c -0.71,-10.41 -1.69,-20.88 0.55,-30.85 8.04,-35.85 38.45,-61.94 68.7,-82.8 C -20.42,64.06 -7.14,55.41 1.05,42.49 9.24,29.57 10.71,10.92 0,0"
             style="fill:#0135a5;fill-opacity:1;fill-rule:nonzero;stroke:none"
             id="path42" /></g><g
           id="g44"
           transform="translate(354.41,217.46)"><path
             d="M 0,0 C -10.68,-2.89 -21.95,-2.02 -33.01,-2.19 -51.67,-2.48 -70.13,-5.8 -88.5,-9.1 c -18,-3.24 -36.87,-6.87 -50.99,-18.5 -12.72,-10.46 -19.93,-26.13 -25.13,-41.76 -4.92,-14.79 -8.43,-30.53 -5.9,-45.9 5.48,-33.36 36.56,-55.25 63.69,-75.42 9.85,-7.32 19.98,-15.56 24.57,-26.78 H -251.6 c -4.77,3.81 -9.44,7.76 -14.05,11.76 -17.66,15.31 -34.76,31.56 -48.26,50.65 -21.85,30.93 -33.34,67.98 -40.5,105.21 V 83.73 c 13.68,48.79 48.17,103.67 99.1,111.09 25.49,3.72 51.43,-5.8 72.74,-20.28 21.31,-14.47 38.89,-33.66 57.02,-51.96 4.3,-4.34 8.96,-8.82 14.9,-10.19 5.95,-1.37 13.37,1.83 14.25,7.87 0.78,5.35 -3.57,9.94 -7.58,13.57 -27.03,24.42 -55.6,48.14 -74.86,79.05 -13.36,21.45 -19.74,45.27 -19.86,69.66 h 156.63 c -3.43,-4.63 -6.76,-9.32 -8.76,-14.64 -6.03,-16.05 3.02,-36.14 19.04,-42.25 9.78,-3.73 23.05,-4.24 26.73,-14.03 3.18,-8.46 -3.67,-16.95 -7.38,-25.18 -8.77,-19.47 0.35,-42.39 12.66,-59.85 C 12.53,109.14 28.35,93.47 35.07,73.19 44.6,44.44 29.24,7.92 0,0"
             style="fill:#af17f5;fill-opacity:1;fill-rule:nonzero;stroke:none"
             id="path46" /></g><g
           id="g48"
           transform="translate(571.08,112.17)"><path
             d="m 0,0 c -24.71,-24.17 -66.09,-32.53 -94.94,-13.5 -21.58,14.23 -32.61,40.34 -36.1,65.95 -3.06,22.43 -1.93,47.27 -16.01,65.01 -3.18,4.01 -7.47,7.66 -12.58,7.99 -4.51,0.29 -8.79,-2.09 -12.23,-5.03 -15.69,-13.41 -20.05,-39.44 -39.53,-46.27 -17.93,-6.27 -35.83,8.03 -54.09,13.24 -34.35,9.82 -71.58,-16.03 -83.76,-49.61 -12.18,-33.59 -4.24,-71.45 10.72,-103.89 7.13,-15.46 15.86,-30.33 22.17,-46.06 h -60 c -19.92,15.82 -44.71,25.97 -66.6,38.33 -32.16,18.17 -57.88,47.3 -76.31,79.2 -23.2,40.17 -29.05,88.99 -21.26,134.72 2.19,12.89 5.45,25.68 10.99,37.52 15.96,34.14 51.12,57.86 88.54,62.32 37.42,4.46 76.11,-9.55 103.79,-35.13 9.3,-8.6 17.74,-18.64 29.19,-24.08 11.44,-5.44 27.34,-4.49 34.25,6.13 5.09,7.82 3.69,18.43 -0.75,26.63 -4.44,8.2 -11.46,14.64 -17.91,21.36 -24.38,25.41 -42.38,57.84 -46.4,92.81 -2.17,18.9 0.32,40.71 7.55,60.19 h 153.67 c -0.14,-24.95 -6.06,-52.3 1.85,-75.88 5.89,-17.58 19.11,-31.68 33.03,-43.93 C -101.74,231.95 -52.15,207.1 -8.8,173.9 2.65,165.13 13.87,155.55 21.32,143.2 29.97,128.87 32.93,111.76 33.44,95.03 34.49,60.48 24.71,24.16 0,0"
             style="fill:#97dbee;fill-opacity:1;fill-rule:nonzero;stroke:none"
             id="path50" /></g><g
           id="g52"
           transform="translate(596.32,103.39)"><path
             d="m 0,0 c -6.94,-6.51 -15.08,-11.77 -21.22,-19.04 -6.48,-7.67 -10.37,-17.15 -15.67,-25.68 -15.33,-24.61 -43.46,-40.74 -72.45,-41.54 -26.29,-0.72 -51.64,10.26 -77.93,11.32 -27.58,1.11 -55.22,-9.73 -75.43,-28.45 h -113.76 c -6.89,7.31 -14.94,13.68 -21.96,18.61 -21.88,15.35 -47.06,25.61 -68.49,41.58 -31.55,23.51 -53.68,59.34 -60.59,98.09 -7.88,44.25 8.65,90.8 48.25,114.65 20.84,12.54 46.15,16.96 70.12,13.35 26.9,-4.05 41.31,-18.24 62.14,-33.57 8.36,-6.16 18.52,-10.89 28.84,-9.72 18.27,2.06 29.17,20.5 42.39,33.27 17.74,17.14 42.6,24.28 66.92,23.15 27.83,-1.3 55.64,-17.57 66.25,-43.32 5.18,-12.58 6.29,-26.85 13.5,-38.38 7.22,-11.53 24.79,-18.56 34.29,-8.83 7.65,7.82 5.03,20.99 -0.23,30.59 -18,32.88 -56.51,47.3 -89.88,64.38 -44.77,22.9 -85.63,55.64 -111.24,98.91 -17.22,29.11 -26.98,63.31 -25.93,97.24 h 128.89 c -8.15,-20.03 -18.8,-40.21 -12.26,-59.82 3.27,-9.78 10.51,-17.73 18.35,-24.43 11.48,-9.8 24.67,-17.59 38.8,-22.91 32.35,-12.18 70.46,-12.07 96.98,-34.23 15.06,-12.58 24.49,-31.66 25.32,-51.27 0.45,-10.51 -1.39,-21.44 2.31,-31.28 3.01,-8.01 9.29,-14.23 14.97,-20.63 C 9.94,131.01 23.69,104.9 26.57,76.93 29.46,48.97 20.53,19.21 0,0"
             style="fill:#fb598b;fill-opacity:1;fill-rule:nonzero;stroke:none"
             id="path54" /></g><g
           id="g56"
           transform="translate(648.24,137.51)"><path
             d="m 0,0 c -1.97,-25.52 -19.05,-49.3 -42.6,-59.31 -26.4,-11.22 -61.39,-7.66 -78.63,-30.59 -9.82,-13.07 -10.98,-32.08 -23.5,-42.59 -2.64,-2.21 -5.58,-3.86 -8.72,-5.02 h -28.65 c -2.02,0.56 -3.99,1.22 -5.91,1.96 -14.18,5.44 -26.87,14.42 -41.33,19.06 -14.45,4.64 -32.38,3.8 -42.22,-7.77 -3.3,-3.88 -5.28,-8.4 -6.43,-13.25 h -112.79 c -9.31,18.01 -26.19,32.08 -43.21,43.8 -21.08,14.53 -44.07,27.71 -58.93,48.56 -19.21,26.98 -21.47,63.99 -9.56,94.9 6.3,16.33 16.67,31.62 31.6,40.75 25.84,15.79 61.29,9.46 84.49,-10.01 9.41,-7.9 18.04,-18.13 30.11,-20.4 13.14,-2.48 26.21,5.6 34.79,15.86 8.57,10.25 14.06,22.72 21.83,33.6 10.25,14.35 25.07,26.05 42.33,29.7 17.26,3.65 36.87,-1.87 47.57,-15.89 15.24,-19.97 10.67,-48.63 17.45,-71.67 1.57,-5.33 3.68,-10.53 6.57,-15.28 11.27,-18.48 35.18,-28.23 56.16,-22.89 42.29,10.75 46.88,64.93 23.86,95.68 -14.58,19.47 -36.89,31.25 -57.47,44.21 -48.49,30.54 -92.31,73.16 -109.63,127.79 -6.13,19.33 -8.1,39.98 -6.07,60.14 0.72,7.14 2.09,14.22 4.04,21.15 h 182.63 c -6.47,-11.35 -15.98,-21.06 -21.46,-32.98 -10.99,-23.91 -3.7,-52.85 10.87,-74.77 14.57,-21.91 35.5,-38.63 54.76,-56.56 13.99,-13.02 27.93,-28.23 30.47,-47.17 1.93,-14.36 -3.06,-28.71 -3.75,-43.19 C -23.08,70.98 2.83,36.77 0,0"
             style="fill:#fed500;fill-opacity:1;fill-rule:nonzero;stroke:none"
             id="path58" /></g><g
           id="g60"
           transform="translate(750,500)"><path
             d="m 0,0 v -101.93 c -0.24,0.08 -0.48,0.15 -0.72,0.21 -7.05,1.89 -14.37,-1.39 -21.66,-1.84 -9.88,-0.61 -19.91,4.45 -25.29,12.75 -10.08,15.57 -2.75,36.11 5.08,52.93 5.14,11.05 10.02,22.5 10.88,34.79 0.07,1.02 0.09,2.05 0.06,3.09 z"
             style="fill:#af17f5;fill-opacity:1;fill-rule:nonzero;stroke:none"
             id="path62" /></g><g
           id="g64"
           transform="translate(750,413.26)"><path
             d="m 0,0 v -61.11 c -8.4,-1.23 -17.26,-0.08 -25.68,1.59 -14.17,2.8 -29.13,7.64 -37.61,19.33 -8.38,11.57 -8.42,27.16 -6.39,41.31 3.39,23.6 13.88,45.55 7.03,70.17 -1.47,5.3 -3.5,10.41 -5.69,15.45 h 43.89 C -24.22,76.54 -26.12,66.22 -30.13,56.9 -34.37,47.04 -40.64,37.98 -43.3,27.57 -45.96,17.17 -43.81,4.35 -34.61,-1.18 -24.55,-7.23 -11.93,-1.99 0,0"
             style="fill:#97dbee;fill-opacity:1;fill-rule:nonzero;stroke:none"
             id="path66" /></g><g
           id="g68"
           transform="translate(750,238.31)"><path
             d="m 0,0 v -238.31 h -400.64 c -11.74,18.63 -26.97,35.08 -44.77,48.07 -17.09,12.46 -36.49,21.86 -52.03,36.22 -15.53,14.37 -26.99,35.89 -21.7,56.38 1.19,4.64 3.26,9.13 6.51,12.64 8.92,9.65 24.59,9.67 36.7,4.57 12.11,-5.1 21.99,-14.24 32.99,-21.43 3.63,-2.39 7.59,-4.62 11.93,-4.85 14.01,-0.73 20.13,17.46 31.48,25.69 12.38,8.98 30.65,4.57 41.99,-5.69 11.33,-10.26 17.45,-24.9 23.54,-38.93 6.09,-14.03 12.93,-28.51 25.11,-37.75 15.89,-12.08 37.74,-12.77 57.41,-9.41 32.49,5.55 63.63,21.28 85.3,46.13 21.66,24.85 33.11,59.03 28.03,91.6 -4.68,29.97 -22.28,56.22 -40.78,80.26 -18.5,24.05 -38.66,47.54 -49.97,75.69 -11.3,28.15 -12.1,62.77 6.67,86.61 11.5,14.6 32,23.78 49.15,16.62 22.7,-9.48 26.97,-39.07 29.34,-63.56 3.49,-36.06 10.44,-72.7 28.99,-103.82 C -96.2,25.61 -64.19,0.67 -28.02,-1.4 -18.67,-1.94 -9.34,-0.96 0,0"
             style="fill:#af17f5;fill-opacity:1;fill-rule:nonzero;stroke:none"
             id="path70" /></g><g
           id="g72"
           transform="translate(750,117.53)"><path
             d="m 0,0 v -117.53 h -77.96 c 1.75,4.74 4.44,9.44 6.77,13.81 9.87,18.53 13.7,39.72 14.94,60.67 0.57,9.61 0.72,19.63 5.17,28.16 4.45,8.53 14.85,14.89 23.75,11.26 2.25,-0.92 4.26,-2.41 6.58,-3.12 C -13.01,-9.13 -6.69,-3.73 0,0"
             style="fill:#fed500;fill-opacity:1;fill-rule:nonzero;stroke:none"
             id="path74" /></g><g
           id="g76"
           transform="translate(750,258.2)"><path
             d="m 0,0 v -36.35 c -40.56,-6.5 -82.56,14.03 -109.37,45.37 -32.31,37.76 -46.97,91.23 -53.94,139.41 -1.68,11.64 -4.08,24.53 -13.54,31.51 -10.59,7.83 -26.79,4.32 -35.57,-5.49 -8.79,-9.8 -11.04,-24.12 -9,-37.13 2.03,-13 7.83,-25.07 13.57,-36.92 7.89,-16.32 16.6,-30.88 26.37,-46.24 21.55,-33.91 41.15,-70.22 47.2,-109.94 6.05,-39.73 -3.53,-83.71 -33.04,-110.98 -15.32,-14.16 -34.8,-22.93 -54.32,-30.29 -25.18,-9.5 -53.28,-17.06 -78.6,-7.94 -26.14,9.43 -43.18,34.49 -55.54,59.39 -6.34,12.79 -15.55,28.19 -29.76,26.88 -15.58,-1.44 -22.32,-22.15 -37.14,-27.17 -15.39,-5.2 -30.05,8.37 -41.9,19.49 -11.86,11.12 -31.32,20.79 -42.95,9.44 -8.26,-8.08 -6.18,-22.6 1.15,-31.53 7.33,-8.93 18.36,-13.78 28.75,-18.83 41.53,-20.2 80.56,-51.24 102.5,-90.88 h -78.41 c -6.8,27.38 -32.38,48.39 -56.44,67.48 -19.68,15.61 -39.21,35.32 -41.53,60.33 -1.75,18.93 7.7,38.4 23.48,49 15.78,10.59 37.2,12.01 54.37,3.86 13.82,-6.56 26.02,-19.02 41.3,-18.43 21.852,0.843 34.504,23.373 46.272,38.573 5.24,6.77 10.609,13.661 17.717,18.433 7.109,4.772 16.387,7.146 24.366,4.04 7.782,-3.029 12.877,-10.56 16.284,-18.185 8.923,-19.975 9.635,-43.074 19.956,-62.365 11.436,-21.377 34.593,-35.803 58.788,-37.328 52.573,-3.314 91.12,47.72 85.49,97.309 -3.074,27.078 -16.935,50.01 -31.64,72.149 -14.852,22.36 -41.648,38.341 -61.423,56.024 -21.93,19.61 -42.22,43.52 -47.37,72.49 -6.48,36.4 13.12,72.54 41.97,96.62 H -126 c 13.15,-17.23 20.85,-39.65 24.26,-61.37 5.49,-34.94 2.9,-71.03 11.31,-105.38 C -82.02,40.7 -58.32,6.31 -23.38,0.85 -15.82,-0.33 -7.88,-0.17 0,0"
             style="fill:#0135a5;fill-opacity:1;fill-rule:nonzero;stroke:none"
             id="path78" /></g><g
           id="g80"
           transform="translate(750,175.08)"><path
             d="m 0,0 v -66.28 c -5.83,-5.14 -13.5,-8.53 -21.15,-7.51 -4.61,0.61 -9.37,2.75 -13.7,1.08 -4.57,-1.77 -6.64,-7.04 -7.59,-11.85 -2.82,-14.31 -0.33,-29.11 -1.36,-43.65 -1.18,-16.93 -7.57,-33.24 -17.61,-46.87 h -95.63 c 3.32,2.39 6.92,4.46 10.34,6.72 21.06,13.9 35.97,35.82 44.8,59.46 8.84,23.63 11.98,49.02 13.12,74.23 0.33,7.3 1.02,15.66 6.9,20.01 6.55,4.84 15.89,1.95 22.93,-2.15 7.04,-4.09 14.15,-9.41 22.29,-9.03 9.47,0.45 16.59,8.39 23.07,15.32 C -9.73,-6.4 -5.08,-2.24 0,0"
             style="fill:#fb598b;fill-opacity:1;fill-rule:nonzero;stroke:none"
             id="path82" /></g><g
           id="g84"
           transform="translate(750,196.85)"><path
             d="m 0,0 v -59.23 c -4.24,-2.07 -8.73,-3.68 -13.26,-4.88 -7.2,-1.9 -14.95,-2.85 -22.03,-0.53 -8.31,2.71 -25.98,18.03 -32.67,5.69 -2.25,-4.15 -2.44,-9.06 -2.74,-13.78 -2.23,-34.98 -13.96,-69.91 -36.53,-96.74 -9.05,-10.76 -19.94,-20.09 -31.99,-27.38 h -200.89 c -11.47,24.22 -30.37,44.58 -52,60.5 -6.87,5.06 -14.28,9.97 -18.57,17.35 -4.29,7.38 -4.22,18.15 2.65,23.21 5.74,4.23 14.12,2.92 20.01,-1.09 5.89,-4.01 9.89,-10.16 13.9,-16.05 17.87,-26.24 39.61,-51.01 68.06,-65.1 28.11,-13.93 61.35,-16.29 91.75,-8.52 63.81,16.3 112.26,79.74 111.17,145.6 -0.34,20.68 -5.02,41.08 -11.39,60.76 -1.05,3.22 -2.01,7.12 0.22,9.67 4.23,4.83 11.36,-1.77 14.63,-7.3 7.32,-12.37 16.83,-20.7 29.32,-27.72 8.44,-4.74 17.38,-9.18 27.04,-9.91 C -27.77,-16.61 -13.39,-8.09 0,0"
             style="fill:#97dbee;fill-opacity:1;fill-rule:nonzero;stroke:none"
             id="path86" /></g><g
           id="g88"
           transform="translate(750,310.92)"><path
             d="m 0,0 v -69.72 c -6.09,-0.49 -12.31,-0.17 -18.33,0.68 -29.11,4.13 -57.01,20.75 -74.11,44.76 -17.86,25.06 -22.66,61.02 -25.58,90.97 -2.53,25.88 -4.03,52.16 -11.96,76.92 -5.36,16.78 -14.03,33.01 -26.65,45.47 h 70.86 c 2.11,-6.46 3.8,-13.04 5.12,-19.64 6.5,-32.62 4.71,-66.25 2.77,-99.46 -0.6,-10.37 -1.18,-21.07 2.26,-30.88 4.21,-12.04 14.16,-21.44 25.51,-27.25 C -38.76,6.04 -26.05,3.47 -13.41,1.77 -8.95,1.16 -4.46,0.66 0,0"
             style="fill:#fed500;fill-opacity:1;fill-rule:nonzero;stroke:none"
             id="path90" /></g><g
           id="g92"
           transform="translate(750,365.11)"><path
             d="m 0,0 v -67.22 c -5.02,-1.32 -10.24,-1.96 -15.38,-1.93 -29.8,0.17 -58.25,21.61 -66.64,50.2 -4.55,15.54 -3.58,32.12 -2,48.23 2.24,22.69 5.62,45.53 3.12,68.19 -1.72,15.54 -6.59,26.75 -13.45,37.42 h 35.3 c 2.07,-6.87 3.2,-14.02 3.29,-21.2 C -55.38,83.88 -71.8,52.77 -59.63,25.56 -52.7,10.07 -36.5,-0.8 -19.55,-1.34 -13.08,-1.55 -6.48,-0.39 0,0"
             style="fill:#fb598b;fill-opacity:1;fill-rule:nonzero;stroke:none"
             id="path94" /></g></g></g></g></svg>
